<svg width="41" height="40" viewBox="0 0 41 40" fill="none" xmlns="http://www.w3.org/2000/svg">
<g id="&#228;&#184;&#139; 1">
<g id="Union" filter="url(#filter0_d_66_1057)">
<path fill-rule="evenodd" clip-rule="evenodd" d="M21.5871 16.7976C21.2952 16.5057 20.8992 16.3417 20.4864 16.3417C19.6264 16.3417 18.9297 17.0384 18.9297 17.8984V28.1984L16.1364 25.3884C15.8395 25.1157 15.4487 24.9685 15.0457 24.9773C14.6427 24.9862 14.2588 25.1506 13.9742 25.436C13.6896 25.7215 13.5264 26.1059 13.5187 26.5089C13.5111 26.9119 13.6595 27.3023 13.933 27.5984L19.108 32.7934L19.1147 32.8C19.4803 33.1632 19.975 33.3665 20.4903 33.3652C21.0055 33.364 21.4993 33.1583 21.863 32.7934L27.0397 27.5984C27.2996 27.3001 27.4366 26.9143 27.4231 26.5188C27.4095 26.1234 27.2464 25.7479 26.9666 25.4681C26.6868 25.1884 26.3113 25.0252 25.9159 25.0117C25.5205 24.9981 25.1347 25.1351 24.8364 25.395L22.043 28.1984V17.8984C22.043 17.4855 21.879 17.0896 21.5871 16.7976ZM29.9647 22.09L35.1547 18.45C35.2582 18.3782 35.3427 18.2824 35.4011 18.1708C35.4595 18.0592 35.49 17.9351 35.49 17.8092C35.49 17.6832 35.4595 17.5591 35.4011 17.4475C35.3427 17.3359 35.2582 17.2401 35.1547 17.1683L20.933 7.18167C20.8019 7.09064 20.646 7.04185 20.4864 7.04185C20.3267 7.04185 20.1709 7.09064 20.0397 7.18167L5.82136 17.1667C5.71887 17.2392 5.63526 17.3352 5.57756 17.4467C5.51986 17.5582 5.48975 17.682 5.48975 17.8075C5.48975 17.9331 5.51986 18.0568 5.57756 18.1683C5.63526 18.2798 5.71887 18.3758 5.82136 18.4483L11.008 22.0917L13.593 20.0917L10.3397 17.8067L20.488 10.685L30.6297 17.8083L27.378 20.0933L29.9647 22.09Z" fill="#FFF5F5"/>
</g>
</g>
<defs>
<filter id="filter0_d_66_1057" x="1.18975" y="2.74175" width="38.6002" height="34.9235" filterUnits="userSpaceOnUse" color-interpolation-filters="sRGB">
<feFlood flood-opacity="0" result="BackgroundImageFix"/>
<feColorMatrix in="SourceAlpha" type="matrix" values="0 0 0 0 0 0 0 0 0 0 0 0 0 0 0 0 0 0 127 0" result="hardAlpha"/>
<feOffset/>
<feGaussianBlur stdDeviation="2.15"/>
<feComposite in2="hardAlpha" operator="out"/>
<feColorMatrix type="matrix" values="0 0 0 0 1 0 0 0 0 0.271935 0 0 0 0 0.271935 0 0 0 0.65 0"/>
<feBlend mode="normal" in2="BackgroundImageFix" result="effect1_dropShadow_66_1057"/>
<feBlend mode="normal" in="SourceGraphic" in2="effect1_dropShadow_66_1057" result="shape"/>
</filter>
</defs>
</svg>
