<svg width="18" height="19" viewBox="0 0 18 19" fill="none" xmlns="http://www.w3.org/2000/svg">
<path d="M4.32003 1.58008H13.68C14.2529 1.58008 14.8023 1.80765 15.2074 2.21273C15.6125 2.61781 15.84 3.16721 15.84 3.74008V15.2601C15.84 15.8329 15.6125 16.3823 15.2074 16.7874C14.8023 17.1925 14.2529 17.4201 13.68 17.4201H4.32003C3.74717 17.4201 3.19776 17.1925 2.79268 16.7874C2.3876 16.3823 2.16003 15.8329 2.16003 15.2601V3.74008C2.16003 3.16721 2.3876 2.61781 2.79268 2.21273C3.19776 1.80765 3.74717 1.58008 4.32003 1.58008Z" fill="white"/>
<path d="M13.1399 12.3799C13.2832 12.3799 13.4205 12.4368 13.5218 12.5381C13.6231 12.6394 13.6799 12.7767 13.6799 12.9199C13.6799 13.0631 13.6231 13.2005 13.5218 13.3018C13.4205 13.403 13.2832 13.4599 13.1399 13.4599H4.85995C4.71673 13.4599 4.57938 13.403 4.47811 13.3018C4.37684 13.2005 4.31995 13.0631 4.31995 12.9199C4.31995 12.7767 4.37684 12.6394 4.47811 12.5381C4.57938 12.4368 4.71673 12.3799 4.85995 12.3799H13.1399ZM13.1399 8.77993C13.2832 8.77993 13.4205 8.83682 13.5218 8.93809C13.6231 9.03936 13.6799 9.17672 13.6799 9.31993C13.6799 9.46315 13.6231 9.6005 13.5218 9.70177C13.4205 9.80304 13.2832 9.85993 13.1399 9.85993H4.85995C4.71673 9.85993 4.57938 9.80304 4.47811 9.70177C4.37684 9.6005 4.31995 9.46315 4.31995 9.31993C4.31995 9.17672 4.37684 9.03936 4.47811 8.93809C4.57938 8.83682 4.71673 8.77993 4.85995 8.77993H13.1399ZM9.53995 5.17993C9.68316 5.17993 9.82051 5.23682 9.92178 5.33809C10.0231 5.43936 10.0799 5.57671 10.0799 5.71993C10.0799 5.86315 10.0231 6.0005 9.92178 6.10177C9.82051 6.20304 9.68316 6.25993 9.53995 6.25993H4.85995C4.71673 6.25993 4.57938 6.20304 4.47811 6.10177C4.37684 6.0005 4.31995 5.86315 4.31995 5.71993C4.31995 5.57671 4.37684 5.43936 4.47811 5.33809C4.57938 5.23682 4.71673 5.17993 4.85995 5.17993H9.53995Z" fill="#DE1717"/>
</svg>
