<svg width="66" height="62" viewBox="0 0 66 62" fill="none" xmlns="http://www.w3.org/2000/svg">
<g filter="url(#filter0_ii_66_907)">
<path d="M58.518 18.879C57.9252 17.695 57.6287 16.4094 56.9048 15.2931C56.1496 13.815 55.2374 12.3974 54.2003 11.068C52.4773 8.85952 50.3583 6.95273 48.0171 5.41517C46.9636 4.70474 45.8114 4.1297 44.7252 3.52075C43.6804 3.09964 42.6609 2.66551 41.6193 2.29162C40.3523 1.83683 39.0596 1.28816 37.7135 1.28816L34.8498 0.949867C33.3685 0.780751 31.8213 0.916019 30.3069 1.01744C26.9166 1.28816 23.9209 2.4383 20.9254 3.79141C15.7573 6.42998 11.1159 10.9968 8.58115 16.4094C6.67197 20.5027 5.61854 25.1709 5.75016 29.6363C5.75016 30.9367 5.98033 32.2517 6.14526 33.5415C6.19103 33.8995 6.24755 34.2543 6.34284 34.6092C7.92278 42.1529 12.6302 49.1891 19.5429 53.1471C20.7938 54.0943 22.2421 54.5003 23.6248 55.0755C28.4964 56.9698 34.6524 57.3079 39.7876 55.8874C47.1073 54.1669 53.8709 48.7467 57.2707 41.6386C57.29 41.5983 57.3168 41.5601 57.3541 41.5355C57.4563 41.4679 57.4298 41.3107 57.4822 41.1999C60.6998 34.3998 61.2265 26.1572 58.518 18.879ZM26.246 15.5386C26.3868 14.0108 27.6121 12.6289 29.121 12.3508C29.4925 12.2824 29.8874 12.2843 30.3069 12.3838C31.2289 12.6207 32.019 13.2972 32.5128 14.1767C32.9735 15.0562 33.138 16.511 32.5128 17.3903C31.9528 18.3715 30.8669 19.1833 29.7475 19.2173C29.0206 19.1789 28.262 18.9779 27.6511 18.565C26.6899 17.9155 26.1395 16.6939 26.246 15.5386ZM56.7075 39.8864C54.5347 45.0621 50.0249 50.035 45.0545 52.4707C44.1594 52.9599 43.2533 53.4265 42.3172 53.7853C40.9595 54.3057 39.4965 54.568 38.0426 54.568L36.0675 54.3651C35.2075 54.1608 34.3264 54.0146 33.4852 53.743C31.7446 53.181 30.1352 52.1111 28.76 50.7792C25.6328 47.464 24.3818 42.5589 25.6328 38.2627C26.2584 36.1315 27.5089 34.1018 29.1547 32.5795C31.1629 31.1248 33.2039 29.7717 35.1462 28.1141C36.175 27.3547 37.2548 26.569 38.2368 25.6908C40.7016 23.4865 42.0034 20.2735 42.5856 17.0184C43.0793 12.0795 40.7092 6.97136 36.3639 4.40029C35.8105 4.00653 35.1882 3.7542 34.577 3.48779C33.9174 3.20026 33.2334 2.95667 32.5413 2.75979C31.9325 2.58658 31.3436 2.40693 30.7149 2.40454C30.7067 2.40451 30.6862 2.39288 30.6802 2.38726C30.6516 2.3604 30.7511 2.28929 30.7899 2.28308C33.1426 1.90634 36.1429 2.17679 38.6026 2.7089C45.3176 4.16361 51.7036 8.76418 55.2589 14.921L56.2792 16.7816C59.8015 23.615 59.9661 33.0192 56.7075 39.8864ZM40.3141 41.0027C40.7423 42.3221 40.446 43.8782 39.4255 44.8592C38.4708 45.5696 37.2528 46.1785 36.0347 45.7388C35.1132 45.4005 34.1587 44.69 33.6977 43.8104C33.2695 42.8634 33.4012 41.6454 33.8295 40.732C34.9838 38.4217 38.8358 38.3044 40.0981 40.5576C40.1791 40.7022 40.2513 40.851 40.3141 41.0027ZM43.681 60.3777C43.6873 60.3813 43.6923 60.3919 43.6873 60.3971L43.6738 60.4109C43.6691 60.4158 43.6611 60.4152 43.6571 60.4097L43.6559 60.4081C43.648 60.3972 43.6693 60.3711 43.681 60.3777ZM39.3415 61.0887C39.366 61.0912 39.3928 61.1115 39.3708 61.1226C39.3413 61.1376 39.3061 61.0865 39.3391 61.0885C39.3399 61.0886 39.3407 61.0886 39.3415 61.0887Z" fill="#2E1C0B"/>
</g>
<path d="M56.9726 40.9588L57.0089 40.9759L56.9726 40.9588ZM56.9726 40.9588L56.9726 40.9587L56.9726 40.9588ZM43.6876 60.385C43.6879 60.3856 43.6882 60.3862 43.6884 60.3869C43.6884 60.3869 43.6884 60.3869 43.6884 60.3869C43.6898 60.3906 43.6898 60.3945 43.6873 60.3971M43.6876 60.385L43.6571 60.4097M43.6876 60.385C43.686 60.3819 43.6836 60.3792 43.681 60.3777M43.6876 60.385L43.6689 60.3793M43.6873 60.3971L43.6817 60.3918L43.6873 60.3971ZM43.6873 60.3971L43.6738 60.4109M43.6738 60.4109L43.6663 60.4036L43.6738 60.4109ZM43.6738 60.4109C43.6703 60.4145 43.6651 60.4151 43.661 60.4131C43.6595 60.4123 43.6581 60.4112 43.6571 60.4097M43.6571 60.4097L43.6559 60.4081M43.6571 60.4097L43.6559 60.4081M43.6559 60.4081L43.6645 60.4018L43.6559 60.4081ZM43.6559 60.4081C43.6532 60.4045 43.6539 60.3991 43.6563 60.3939C43.659 60.3881 43.6638 60.3825 43.6689 60.3793M43.6559 60.4081L43.6689 60.3793M43.681 60.3777L43.6761 60.3863L43.681 60.3777ZM43.681 60.3777C43.6775 60.3758 43.6731 60.3767 43.6689 60.3793M21.2364 4.4381C24.188 3.10554 27.0685 2.00717 30.2998 1.73779C30.2827 1.75035 30.2657 1.76358 30.2492 1.77744C30.211 1.80938 30.1228 1.88713 30.0541 2.00953C30.0193 2.07165 29.9599 2.19709 29.9578 2.36631C29.9553 2.56522 30.034 2.76475 30.1895 2.9106L30.6787 2.38887L30.1895 2.91061C30.2643 2.98065 30.3397 3.0208 30.3636 3.03335C30.3849 3.0445 30.4167 3.06005 30.456 3.07473L30.4576 3.07531C30.4807 3.08396 30.5807 3.12143 30.7122 3.12193C31.2007 3.12378 31.667 3.25664 32.2669 3.42756C32.2927 3.4349 32.3188 3.44232 32.345 3.4498C33.0072 3.63819 33.661 3.87107 34.2903 4.14541C34.3504 4.1716 34.4096 4.19727 34.4679 4.22257C35.031 4.46677 35.5147 4.67654 35.948 4.98484L35.9726 5.00233L35.9986 5.0177C40.0791 7.43209 42.3309 12.2475 41.8745 16.9196C41.3055 20.0781 40.0528 23.1044 37.7586 25.1561C36.8667 25.9537 35.8889 26.6749 34.9155 27.3928C34.8504 27.4409 34.7852 27.4889 34.7202 27.537L34.6998 27.552L34.6805 27.5684C33.2508 28.7886 31.7758 29.8342 30.2707 30.9011C29.7617 31.2619 29.2492 31.6252 28.7339 31.9985L28.6991 32.0237L28.6676 32.0528C26.926 33.6637 25.6063 35.8058 24.9445 38.0606L24.944 38.0621C23.6189 42.6128 24.9439 47.7791 28.2381 51.2714L28.2493 51.2832L28.2609 51.2945C29.6955 52.6839 31.3967 53.8225 33.2648 54.4257C33.873 54.6221 34.5271 54.7625 35.1358 54.8931C35.4024 54.9504 35.6603 55.0057 35.9017 55.0631L35.9475 55.0739L35.9942 55.0788L37.9693 55.2816L38.0058 55.2854H38.0426C38.5736 55.2854 39.1059 55.2524 39.6346 55.1864C39.6309 55.1873 39.6272 55.1882 39.6234 55.189L39.6098 55.1922L39.5963 55.196C34.6138 56.5743 28.6198 56.2459 23.8925 54.4099C23.52 54.2551 23.1603 54.1174 22.8121 53.984C21.7738 53.5864 20.8384 53.2282 19.976 52.5752L19.9393 52.5474L19.8994 52.5246C13.1804 48.6775 8.58681 41.8238 7.045 34.4621L7.04089 34.4425L7.03569 34.4231C6.95266 34.1139 6.90101 33.7958 6.85685 33.4505C6.81956 33.1589 6.77999 32.8719 6.74092 32.5884C6.60105 31.5739 6.46755 30.6055 6.46755 29.6363V29.6258L6.46724 29.6152C6.33921 25.2717 7.36499 20.7142 9.23111 16.713C11.6911 11.4605 16.2064 7.01051 21.2364 4.4381ZM56.9986 40.998C56.9986 40.998 56.9986 40.998 56.9986 40.998ZM30.4854 11.689L30.4854 11.6889L30.4725 11.6858C29.953 11.5626 29.4573 11.5594 28.991 11.6453C27.1555 11.9835 25.7009 13.6357 25.5316 15.4728C25.4023 16.8765 26.0614 18.3566 27.2494 19.1594C27.9939 19.6625 28.8874 19.8902 29.7097 19.9336L29.7395 19.9352L29.7693 19.9343C31.1876 19.8913 32.4636 18.9019 33.1187 17.7757C33.5363 17.1698 33.6605 16.4255 33.637 15.7583C33.6129 15.0744 33.4316 14.3847 33.1483 13.8438L33.1434 13.8345L33.1383 13.8254C32.5667 12.8073 31.6299 11.983 30.4854 11.689ZM39.6402 41.2508C39.9771 42.3214 39.7271 43.5479 38.9594 44.3116C38.0447 44.9841 37.1171 45.3659 36.28 45.0646C35.4886 44.7736 34.7057 44.172 34.3429 43.496C34.0343 42.7928 34.1167 41.8151 34.4752 41.0448C34.9066 40.19 35.8731 39.6814 36.944 39.6506C38.0179 39.6196 39.0049 40.0741 39.4722 40.9082C39.5349 41.0201 39.5911 41.1347 39.6402 41.2508ZM39.3552 61.0918C39.3744 61.0985 39.3887 61.1136 39.3708 61.1226C39.3595 61.1284 39.3474 61.1244 39.3386 61.1175C39.3386 61.1175 39.3385 61.1174 39.3385 61.1174C39.3381 61.1171 39.3378 61.1169 39.3375 61.1166C39.3241 61.1053 39.3193 61.0873 39.3391 61.0885L39.3415 61.0887C39.3461 61.0892 39.3508 61.0903 39.3552 61.0918Z" stroke="#FFD119" stroke-width="1.43478"/>
<defs>
<filter id="filter0_ii_66_907" x="-1.43478" y="-16.3478" width="66" height="81.7776" filterUnits="userSpaceOnUse" color-interpolation-filters="sRGB">
<feFlood flood-opacity="0" result="BackgroundImageFix"/>
<feBlend mode="normal" in="SourceGraphic" in2="BackgroundImageFix" result="shape"/>
<feColorMatrix in="SourceAlpha" type="matrix" values="0 0 0 0 0 0 0 0 0 0 0 0 0 0 0 0 0 0 127 0" result="hardAlpha"/>
<feOffset dx="-7.17391" dy="-17.2174"/>
<feGaussianBlur stdDeviation="24.9652"/>
<feComposite in2="hardAlpha" operator="arithmetic" k2="-1" k3="1"/>
<feColorMatrix type="matrix" values="0 0 0 0 1 0 0 0 0 0.794256 0 0 0 0 0.118239 0 0 0 0.57 0"/>
<feBlend mode="normal" in2="shape" result="effect1_innerShadow_66_907"/>
<feColorMatrix in="SourceAlpha" type="matrix" values="0 0 0 0 0 0 0 0 0 0 0 0 0 0 0 0 0 0 127 0" result="hardAlpha"/>
<feOffset dx="4.30435" dy="4.30435"/>
<feGaussianBlur stdDeviation="23.9609"/>
<feComposite in2="hardAlpha" operator="arithmetic" k2="-1" k3="1"/>
<feColorMatrix type="matrix" values="0 0 0 0 1 0 0 0 0 0.711142 0 0 0 0 0.174692 0 0 0 0.51 0"/>
<feBlend mode="normal" in2="effect1_innerShadow_66_907" result="effect2_innerShadow_66_907"/>
</filter>
</defs>
</svg>
