<svg width="66" height="62" viewBox="0 0 66 62" fill="none" xmlns="http://www.w3.org/2000/svg">
<g filter="url(#filter0_ii_66_1130)">
<path d="M58.5179 18.879C57.9251 17.695 57.6286 16.4094 56.9047 15.2931C56.1495 13.815 55.2373 12.3974 54.2001 11.068C52.4772 8.85952 50.3582 6.95273 48.0169 5.41517C46.9635 4.70474 45.8113 4.1297 44.7251 3.52075C43.6802 3.09964 42.6608 2.66551 41.6192 2.29162C40.3522 1.83683 39.0595 1.28816 37.7133 1.28816L34.8497 0.949867C33.3684 0.780751 31.8212 0.916019 30.3067 1.01744C26.9165 1.28816 23.9208 2.4383 20.9253 3.79141C15.7572 6.42998 11.1158 10.9968 8.58103 16.4094C6.67185 20.5027 5.61841 25.1709 5.75003 29.6363C5.75003 30.9367 5.9802 32.2517 6.14514 33.5415C6.19091 33.8995 6.24743 34.2543 6.34272 34.6092C7.92266 42.1529 12.6301 49.1891 19.5428 53.1471C20.7936 54.0943 22.2419 54.5003 23.6246 55.0755C28.4962 56.9698 34.6523 57.3079 39.7875 55.8874C47.1071 54.1669 53.8708 48.7467 57.2706 41.6386C57.2899 41.5983 57.3167 41.5601 57.3539 41.5355C57.4562 41.4679 57.4297 41.3107 57.4821 41.1999C60.6997 34.3998 61.2264 26.1572 58.5179 18.879ZM26.2459 15.5386C26.3866 14.0108 27.612 12.6289 29.1209 12.3508C29.4923 12.2824 29.8873 12.2843 30.3068 12.3838C31.2287 12.6207 32.0189 13.2972 32.5127 14.1767C32.9734 15.0562 33.1379 16.511 32.5127 17.3903C31.9527 18.3715 30.8668 19.1833 29.7474 19.2173C29.0204 19.1789 28.2619 18.9779 27.651 18.565C26.6898 17.9155 26.1394 16.6939 26.2459 15.5386ZM56.7074 39.8864C54.5346 45.0621 50.0248 50.035 45.0543 52.4707C44.1593 52.9599 43.2532 53.4265 42.317 53.7853C40.9594 54.3057 39.4964 54.568 38.0425 54.568L36.0674 54.3651C35.2074 54.1608 34.3263 54.0146 33.4851 53.743C31.7445 53.181 30.1351 52.1111 28.7599 50.7792C25.6327 47.464 24.3817 42.5589 25.6327 38.2627C26.2583 36.1315 27.5087 34.1018 29.1546 32.5795C31.1628 31.1248 33.2038 29.7717 35.1461 28.1141C36.1748 27.3547 37.2546 26.569 38.2367 25.6908C40.7015 23.4865 42.0033 20.2735 42.5855 17.0184C43.0792 12.0795 40.7091 6.97136 36.3638 4.40029C35.8103 4.00653 35.188 3.7542 34.5769 3.48779C33.9173 3.20026 33.2333 2.95667 32.5412 2.75979C31.9324 2.58658 31.3435 2.40693 30.7148 2.40454C30.7066 2.40451 30.6861 2.39288 30.6801 2.38726C30.6514 2.3604 30.751 2.28929 30.7898 2.28308C33.1425 1.90634 36.1428 2.17679 38.6025 2.7089C45.3175 4.16361 51.7034 8.76418 55.2588 14.921L56.2791 16.7816C59.8014 23.615 59.966 33.0192 56.7074 39.8864ZM40.314 41.0027C40.7421 42.3221 40.4458 43.8782 39.4254 44.8592C38.4707 45.5696 37.2527 46.1785 36.0346 45.7388C35.113 45.4005 34.1586 44.69 33.6975 43.8104C33.2694 42.8634 33.4011 41.6454 33.8294 40.732C34.9837 38.4217 38.8357 38.3044 40.098 40.5576C40.1789 40.7022 40.2512 40.851 40.314 41.0027ZM43.6809 60.3777C43.6872 60.3813 43.6922 60.3919 43.6871 60.3971L43.6737 60.4109C43.669 60.4158 43.661 60.4152 43.6569 60.4097L43.6558 60.4081C43.6478 60.3972 43.6692 60.3711 43.6809 60.3777ZM39.3413 61.0887C39.3659 61.0912 39.3927 61.1115 39.3707 61.1226C39.3412 61.1376 39.306 61.0865 39.339 61.0885C39.3398 61.0886 39.3406 61.0886 39.3413 61.0887Z" fill="#2E110B"/>
</g>
<path d="M56.9725 40.9588L57.0088 40.9759L56.9725 40.9588ZM56.9725 40.9588L56.9725 40.9587L56.9725 40.9588ZM43.6875 60.385C43.6878 60.3856 43.688 60.3862 43.6883 60.3869C43.6883 60.3869 43.6883 60.3869 43.6883 60.3869C43.6897 60.3906 43.6897 60.3945 43.6871 60.3971M43.6875 60.385L43.6569 60.4097M43.6875 60.385C43.6859 60.3819 43.6835 60.3792 43.6809 60.3777M43.6875 60.385L43.6688 60.3793M43.6871 60.3971L43.6816 60.3918L43.6871 60.3971ZM43.6871 60.3971L43.6737 60.4109M43.6737 60.4109L43.6662 60.4036L43.6737 60.4109ZM43.6737 60.4109C43.6702 60.4145 43.665 60.4151 43.6609 60.4131C43.6594 60.4123 43.658 60.4112 43.6569 60.4097M43.6569 60.4097L43.6558 60.4081M43.6569 60.4097L43.6558 60.4081M43.6558 60.4081L43.6644 60.4018L43.6558 60.4081ZM43.6558 60.4081C43.6531 60.4045 43.6537 60.3991 43.6562 60.3939C43.6588 60.3881 43.6637 60.3825 43.6688 60.3793M43.6558 60.4081L43.6688 60.3793M43.6809 60.3777L43.676 60.3863L43.6809 60.3777ZM43.6809 60.3777C43.6774 60.3758 43.673 60.3767 43.6688 60.3793M21.2363 4.4381C24.1879 3.10554 27.0684 2.00717 30.2997 1.73779C30.2825 1.75035 30.2656 1.76358 30.2491 1.77744C30.2109 1.80938 30.1227 1.88713 30.054 2.00953C30.0192 2.07165 29.9598 2.19709 29.9577 2.36631C29.9552 2.56522 30.0338 2.76475 30.1894 2.9106L30.6786 2.38887L30.1894 2.91061C30.2641 2.98065 30.3395 3.0208 30.3635 3.03335C30.3847 3.0445 30.4166 3.06005 30.4559 3.07473L30.4575 3.07531C30.4805 3.08396 30.5805 3.12143 30.7121 3.12193C31.2006 3.12378 31.6669 3.25664 32.2668 3.42756C32.2926 3.4349 32.3186 3.44232 32.3449 3.4498C33.0071 3.63819 33.6609 3.87107 34.2902 4.14541C34.3503 4.1716 34.4095 4.19727 34.4678 4.22257C35.0309 4.46677 35.5146 4.67654 35.9479 4.98484L35.9725 5.00233L35.9985 5.0177C40.079 7.43209 42.3307 12.2475 41.8744 16.9196C41.3054 20.0781 40.0526 23.1044 37.7584 25.1561C36.8665 25.9537 35.8887 26.6749 34.9154 27.3928C34.8503 27.4409 34.7851 27.4889 34.72 27.537L34.6997 27.552L34.6804 27.5684C33.2506 28.7886 31.7757 29.8342 30.2706 30.9011C29.7616 31.2619 29.2491 31.6252 28.7338 31.9985L28.699 32.0237L28.6675 32.0528C26.9258 33.6637 25.6062 35.8058 24.9443 38.0606L24.9439 38.0621C23.6188 42.6128 24.9438 47.7791 28.238 51.2714L28.2491 51.2832L28.2608 51.2945C29.6954 52.6839 31.3965 53.8225 33.2646 54.4257C33.8729 54.6221 34.527 54.7625 35.1357 54.8931C35.4023 54.9504 35.6601 55.0057 35.9016 55.0631L35.9473 55.0739L35.9941 55.0788L37.9692 55.2816L38.0057 55.2854H38.0425C38.5734 55.2854 39.1058 55.2524 39.6345 55.1864C39.6308 55.1873 39.6271 55.1882 39.6233 55.189L39.6097 55.1922L39.5962 55.196C34.6137 56.5743 28.6197 56.2459 23.8924 54.4099C23.5199 54.2551 23.1601 54.1174 22.8119 53.984C21.7737 53.5864 20.8383 53.2282 19.9759 52.5752L19.9392 52.5474L19.8993 52.5246C13.1802 48.6775 8.58669 41.8238 7.04488 34.4621L7.04077 34.4425L7.03556 34.4231C6.95254 34.1139 6.90089 33.7958 6.85673 33.4505C6.81944 33.1589 6.77987 32.8719 6.74079 32.5884C6.60093 31.5739 6.46743 30.6055 6.46743 29.6363V29.6258L6.46711 29.6152C6.33909 25.2717 7.36487 20.7142 9.23098 16.713C11.691 11.4605 16.2063 7.01051 21.2363 4.4381ZM56.9985 40.998C56.9985 40.998 56.9985 40.998 56.9985 40.998ZM30.4853 11.689L30.4853 11.6889L30.4723 11.6858C29.9529 11.5626 29.4572 11.5594 28.9909 11.6453C27.1554 11.9835 25.7008 13.6357 25.5315 15.4728C25.4021 16.8765 26.0613 18.3566 27.2493 19.1594C27.9938 19.6625 28.8873 19.8902 29.7096 19.9336L29.7394 19.9352L29.7692 19.9343C31.1875 19.8913 32.4635 18.9019 33.1186 17.7757C33.5362 17.1698 33.6604 16.4255 33.6368 15.7583C33.6127 15.0744 33.4315 14.3847 33.1482 13.8438L33.1433 13.8345L33.1382 13.8254C32.5666 12.8073 31.6298 11.983 30.4853 11.689ZM39.6401 41.2508C39.977 42.3214 39.7269 43.5479 38.9593 44.3116C38.0445 44.9841 37.117 45.3659 36.2798 45.0646C35.4885 44.7736 34.7056 44.172 34.3428 43.496C34.0342 42.7928 34.1166 41.8151 34.4751 41.0448C34.9065 40.19 35.873 39.6814 36.9438 39.6506C38.0178 39.6196 39.0048 40.0741 39.4721 40.9082C39.5348 41.0201 39.591 41.1347 39.6401 41.2508ZM39.3551 61.0918C39.3743 61.0985 39.3886 61.1136 39.3707 61.1226C39.3594 61.1284 39.3473 61.1244 39.3385 61.1175C39.3384 61.1175 39.3384 61.1174 39.3384 61.1174C39.338 61.1171 39.3377 61.1169 39.3374 61.1166C39.324 61.1053 39.3192 61.0873 39.339 61.0885L39.3413 61.0887C39.346 61.0892 39.3507 61.0903 39.3551 61.0918Z" stroke="#FF1919" stroke-width="1.43478"/>
<defs>
<filter id="filter0_ii_66_1130" x="-1.4349" y="-16.3478" width="66" height="81.7776" filterUnits="userSpaceOnUse" color-interpolation-filters="sRGB">
<feFlood flood-opacity="0" result="BackgroundImageFix"/>
<feBlend mode="normal" in="SourceGraphic" in2="BackgroundImageFix" result="shape"/>
<feColorMatrix in="SourceAlpha" type="matrix" values="0 0 0 0 0 0 0 0 0 0 0 0 0 0 0 0 0 0 127 0" result="hardAlpha"/>
<feOffset dx="-7.17391" dy="-17.2174"/>
<feGaussianBlur stdDeviation="24.9652"/>
<feComposite in2="hardAlpha" operator="arithmetic" k2="-1" k3="1"/>
<feColorMatrix type="matrix" values="0 0 0 0 1 0 0 0 0 0.279895 0 0 0 0 0.118239 0 0 0 0.57 0"/>
<feBlend mode="normal" in2="shape" result="effect1_innerShadow_66_1130"/>
<feColorMatrix in="SourceAlpha" type="matrix" values="0 0 0 0 0 0 0 0 0 0 0 0 0 0 0 0 0 0 127 0" result="hardAlpha"/>
<feOffset dx="4.30435" dy="4.30435"/>
<feGaussianBlur stdDeviation="23.9609"/>
<feComposite in2="hardAlpha" operator="arithmetic" k2="-1" k3="1"/>
<feColorMatrix type="matrix" values="0 0 0 0 1 0 0 0 0 0.408529 0 0 0 0 0.174692 0 0 0 0.51 0"/>
<feBlend mode="normal" in2="effect1_innerShadow_66_1130" result="effect2_innerShadow_66_1130"/>
</filter>
</defs>
</svg>
